<svg width="16" height="17" viewBox="0 0 16 17" fill="none" xmlns="http://www.w3.org/2000/svg">
<g clip-path="url(#clip0_14_883)">
<path fill-rule="evenodd" clip-rule="evenodd" d="M15 0H0V16H1V1H15V0Z" fill="#DFDFDF"/>
<path fill-rule="evenodd" clip-rule="evenodd" d="M2 1H1V15H2V2H14V1H2Z" fill="white"/>
<path fill-rule="evenodd" clip-rule="evenodd" d="M16 17H0V16H15V0H16V17Z" fill="black"/>
<path fill-rule="evenodd" clip-rule="evenodd" d="M15 1H14V15H1V16H15V1Z" fill="#808080"/>
<path d="M2 2H14V15H2V2Z" fill="#C0C0C0"/>
<path fill-rule="evenodd" clip-rule="evenodd" d="M4.5 10.5L11.5 10.5L11.5 9.5L10.5 9.5L10.5 8.5L9.5 8.5L9.5 7.5L8.5 7.5L8.5 6.5L7.5 6.5L7.5 7.5L6.5 7.5L6.5 8.5L5.5 8.5L5.5 9.5L4.5 9.5L4.5 10.5Z" fill="black"/>
</g>
<defs>
<clipPath id="clip0_14_883">
<rect width="16" height="17" fill="white"/>
</clipPath>
</defs>
</svg>
